<svg id="Layer_1" enable-background="new 0 0 512 512" height="512" viewBox="0 0 512 512" width="512" xmlns="http://www.w3.org/2000/svg"><g fill="#020202"><path d="m438.136 455.298c-4.542.03-5.508-.12-8.774-2.257-8.115-5.309-16.327 7.244-8.212 12.553 3.586 2.345 6.458 3.559 9.536 4.162v2.189c0 9.697 15 9.697 15 0v-3.051c6.819-2.613 11.992-8.657 13.265-16.225 1.611-9.58-3.571-18.23-12.894-21.526-4.118-1.456-10.808-2.894-11.683-5.343-.646-1.807.185-3.275 1.941-4.238 2.358-.71 5.476-.043 6.829.869 0 0 5.855 4.818 10.855.318 5.835-5.251-.686-11.344-.686-11.344-1.537-1.418-4.196-3.115-7.628-4.185v-2.173c0-9.697-15-9.697-15 0v2.606c-5.744 2.238-9.969 7.384-11.165 13.734-1.197 6.351.927 12.544 5.542 16.164 4.245 3.329 10.196 5.685 15.995 7.735 5.978 2.113 2.516 9.976-2.921 10.012z"/><path d="m73.136 455.298c-4.542.03-5.508-.12-8.774-2.257-8.115-5.309-16.327 7.244-8.212 12.553 3.586 2.345 6.458 3.559 9.536 4.162v2.189c0 9.697 15 9.697 15 0v-3.051c6.819-2.613 11.992-8.657 13.265-16.225 1.611-9.58-3.571-18.23-12.894-21.526-4.118-1.456-10.808-2.894-11.683-5.343-.646-1.807.185-3.275 1.941-4.238 2.358-.71 5.476-.043 6.829.869 0 0 5.855 4.818 10.855.318 5.835-5.251-.686-11.344-.686-11.344-1.537-1.418-4.196-3.115-7.628-4.185v-2.173c0-9.697-15-9.697-15 0v2.606c-5.744 2.238-9.969 7.384-11.165 13.734-1.197 6.351.927 12.544 5.542 16.164 4.245 3.329 10.196 5.685 15.995 7.735 5.978 2.113 2.516 9.976-2.921 10.012z"/><path d="m438.136 90.298c-4.542.03-5.508-.12-8.774-2.257-8.115-5.309-16.327 7.244-8.212 12.553 3.586 2.345 6.458 3.559 9.536 4.162v2.189c0 9.697 15 9.697 15 0v-3.051c6.819-2.613 11.992-8.657 13.265-16.225 1.611-9.58-3.571-18.23-12.894-21.526-4.118-1.456-10.808-2.894-11.683-5.343-.646-1.807.185-3.275 1.941-4.238 2.358-.71 5.476-.043 6.829.869 0 0 5.855 4.818 10.855.318 5.835-5.251-.686-11.344-.686-11.344-1.537-1.418-4.196-3.115-7.628-4.185v-2.173c0-9.697-15-9.697-15 0v2.606c-5.744 2.238-9.969 7.384-11.165 13.734-1.197 6.351.927 12.544 5.542 16.164 4.245 3.329 10.196 5.685 15.995 7.735 5.978 2.113 2.516 9.976-2.921 10.012z"/><path d="m388.632 217.314c5.96 0 9.562-6.922 6.143-11.804l-32.965-47.05c-1.404-2.003-3.696-3.196-6.143-3.196h-199.334c-2.446 0-4.739 1.193-6.143 3.196l-32.965 47.05c-3.42 4.881.183 11.804 6.143 11.804h25.452l-.32 131.668c.418 4.573 2.913 7.315 7.485 7.754h199.683c4.142 0 7.5-3.358 7.5-7.5v-131.922zm-36.867-47.05 22.455 32.05h-41.021l-22.455-32.05zm-191.53 0h121.674l-22.455 32.05h-121.674zm187.932 171.472h-44.595l.249-25.042c.042-4.142-3.283-7.533-7.425-7.574-4.153-.059-7.533 3.283-7.574 7.425l-.249 25.045c-20.263.081-80.028.011-125.055-.075l.302-124.201h99.537c2.446 0 4.739-1.193 6.143-3.196l19.326-27.584s-.004 84.038-.004 84.788c0 4.142 3.357 7.5 7.5 7.5 4.142 0 7.5-3.357 7.5-7.5l.004-84.791 19.328 27.586c1.404 2.003 3.696 3.196 6.143 3.196h18.872v124.423z"/><path d="m73.497 146.993c40.526 0 73.497-32.97 73.497-73.497s-32.971-73.496-73.497-73.496c-13.798 0-27.261 3.861-38.934 11.167-8.22 5.144-.263 17.859 7.958 12.715 9.284-5.811 19.996-8.882 30.976-8.882 32.255 0 58.497 26.242 58.497 58.497s-26.242 58.497-58.497 58.497-58.497-26.243-58.497-58.497c0-7.993 1.588-15.746 4.72-23.044 3.825-8.911-9.96-14.827-13.784-5.916-3.939 9.177-5.936 18.921-5.936 28.96 0 40.526 32.97 73.496 73.497 73.496z"/><path d="m73.136 90.298c-4.542.03-5.508-.12-8.774-2.257-8.115-5.309-16.327 7.244-8.212 12.553 3.586 2.345 6.458 3.559 9.536 4.162v2.189c0 9.697 15 9.697 15 0v-3.051c6.819-2.613 11.992-8.657 13.265-16.225 1.611-9.58-3.571-18.23-12.894-21.526-4.118-1.456-10.808-2.894-11.683-5.343-.646-1.807.185-3.275 1.941-4.238 2.358-.71 5.476-.043 6.829.869 0 0 5.855 4.818 10.855.318 5.835-5.251-.686-11.344-.686-11.344-1.537-1.418-4.196-3.115-7.628-4.185v-2.173c0-9.697-15-9.697-15 0v2.606c-5.744 2.238-9.969 7.384-11.165 13.734-1.197 6.351.927 12.544 5.542 16.164 4.245 3.329 10.196 5.685 15.995 7.735 5.978 2.113 2.516 9.976-2.921 10.012z"/><path d="m438.503 146.993c40.526 0 73.497-32.97 73.497-73.497s-32.97-73.496-73.497-73.496-73.497 32.97-73.497 73.497 32.971 73.496 73.497 73.496zm0-131.993c32.255 0 58.497 26.242 58.497 58.497s-26.242 58.497-58.497 58.497-58.497-26.242-58.497-58.497 26.243-58.497 58.497-58.497z"/><path d="m73.497 365.007c-40.527 0-73.497 32.97-73.497 73.496s32.97 73.497 73.497 73.497 73.497-32.97 73.497-73.497-32.971-73.496-73.497-73.496zm0 131.993c-32.255 0-58.497-26.242-58.497-58.497s26.242-58.497 58.497-58.497 58.497 26.242 58.497 58.497-26.243 58.497-58.497 58.497z"/><path d="m438.503 365.007c-40.526 0-73.497 32.97-73.497 73.497s32.971 73.496 73.497 73.496 73.497-32.97 73.497-73.497-32.97-73.496-73.497-73.496zm0 131.993c-32.255 0-58.497-26.242-58.497-58.497s26.242-58.497 58.497-58.497 58.497 26.243 58.497 58.497-26.242 58.497-58.497 58.497z"/><path d="m188.227 44.037c28.612 0 52.63 19.97 58.893 46.7l-3.478-3.602c-6.736-6.975-17.527 3.445-10.79 10.42l17.753 18.384c3.34 3.458 9.486 2.7 11.959-1.21l16.584-17.173c6.737-6.975-4.053-17.395-10.79-10.42l-5.536 5.732c-5.627-36.109-36.932-63.831-74.595-63.831-9.697 0-9.697 15 0 15z"/><path d="m324.25 467.963c-28.611 0-52.63-19.97-58.893-46.699l3.478 3.601c2.877 2.979 7.625 3.063 10.605.185 2.979-2.877 3.063-7.625.185-10.605l-17.752-18.384c-1.413-1.463-3.36-2.29-5.395-2.29-.038 0-.075.005-.113.006-.038-.001-.075-.006-.114-.006-2.67 0-5.008 1.399-6.337 3.5l-16.584 17.173c-2.877 2.979-2.794 7.728.185 10.605 1.456 1.406 3.333 2.105 5.209 2.105 1.963 0 3.924-.766 5.396-2.29l5.536-5.732c5.627 36.109 36.932 63.831 74.595 63.831 4.142 0 7.5-3.358 7.5-7.5s-3.358-7.5-7.501-7.5z"/><path d="m482.963 187.988c0-9.697-15-9.697-15 0 0 28.611-19.97 52.63-46.699 58.893l3.601-3.478c6.975-6.736-3.445-17.527-10.42-10.79l-18.384 17.752c-3.458 3.34-2.7 9.486 1.21 11.959l17.173 16.584c6.95 6.71 17.412-4.037 10.42-10.79l-5.732-5.536c36.11-5.626 63.831-36.931 63.831-74.594z"/><path d="m114.729 249.675-17.173-16.584c-6.976-6.735-17.395 4.053-10.42 10.79l5.732 5.536c-36.109 5.627-63.831 36.932-63.831 74.595 0 9.697 15 9.697 15 0 0-28.611 19.97-52.63 46.699-58.893l-3.601 3.478c-6.992 6.753 3.471 17.501 10.42 10.79l18.384-17.752c3.458-3.341 2.7-9.487-1.21-11.96z"/></g></svg>