<svg id="Capa_1" enable-background="new 0 0 512 512" height="512" viewBox="0 0 512 512" width="512" xmlns="http://www.w3.org/2000/svg"><g><path d="m504.485 119.343h-44.015v-9.058c0-4.151-3.364-7.515-7.515-7.515s-7.515 3.364-7.515 7.515v9.058h-44.015c-4.15 0-7.515 3.364-7.515 7.515s3.365 7.515 7.515 7.515h44.015v46.027h-20.82c-4.15 0-7.515 3.364-7.515 7.515v31.735h-21.968c-3.433-13.245-15.488-23.056-29.791-23.056h-41.6c-4.15 0-7.515 3.364-7.515 7.515s3.365 7.515 7.515 7.515h41.6c8.68 0 15.742 7.062 15.742 15.743 0 8.68-7.062 15.743-15.742 15.743h-28.244c-7.587 0-14.287 5.11-16.293 12.426l-13.6 49.573c-3.565 12.994-15.464 22.068-28.938 22.068h-44.546c-13.474 0-25.374-9.074-28.938-22.068l-13.6-49.572c-2.006-7.317-8.706-12.427-16.293-12.427h-28.244c-8.68 0-15.742-7.063-15.742-15.743 0-8.681 7.062-15.743 15.742-15.743h147.037c4.15 0 7.515-3.364 7.515-7.515s-3.365-7.515-7.515-7.515h-147.035c-14.303 0-26.358 9.811-29.791 23.056h-21.968v-31.735c0-4.151-3.364-7.515-7.515-7.515h-20.82v-46.027h44.015c4.15 0 7.515-3.364 7.515-7.515s-3.365-7.515-7.515-7.515h-44.014v-9.058c0-4.151-3.365-7.515-7.515-7.515s-7.515 3.364-7.515 7.515v9.058h-44.014c-4.15 0-7.515 3.364-7.515 7.515s3.365 7.515 7.515 7.515h44.015v46.027h-20.82c-4.15 0-7.515 3.364-7.515 7.515v19.364c0 4.151 3.365 7.515 7.515 7.515s7.515-3.364 7.515-7.515v-11.849h41.639v51.293c0 11.479-9.34 20.819-20.82 20.819s-20.819-9.34-20.819-20.819v-9.385c0-4.151-3.365-7.515-7.515-7.515s-7.515 3.364-7.515 7.515v9.385c0 19.767 16.082 35.848 35.849 35.848s35.849-16.081 35.849-35.848v-12.043h21.873c3.292 13.448 15.439 23.459 29.886 23.459h28.244c.838 0 1.577.565 1.799 1.373l11.706 42.67c-6.245 2.475-15.518 7.191-24.726 15.724-23.272 21.566-29.932 52.118-31.001 76.295h-22.099c-4.15 0-7.515 3.364-7.515 7.515s3.365 7.515 7.515 7.515h29.449c4.15 0 7.515-3.364 7.515-7.515 0-60.219 31.812-79.677 45.499-85.263 7.352 15.477 23.127 25.754 40.69 25.754h44.546c17.563 0 33.338-10.277 40.69-25.754 13.688 5.585 45.499 25.043 45.499 85.263 0 4.151 3.364 7.515 7.515 7.515h29.449c4.15 0 7.515-3.364 7.515-7.515s-3.365-7.515-7.515-7.515h-22.094c-1.75-40.702-17.593-63.866-31.007-76.295-9.208-8.533-18.481-13.249-24.726-15.724l11.706-42.671c.222-.807.961-1.372 1.799-1.372h28.244c14.447 0 26.595-10.011 29.886-23.459h21.873v12.043c0 19.767 16.082 35.848 35.849 35.848s35.849-16.081 35.849-35.848v-9.385c0-4.151-3.365-7.515-7.515-7.515s-7.515 3.364-7.515 7.515v9.385c0 11.479-9.34 20.819-20.82 20.819s-20.82-9.34-20.82-20.819v-51.293h41.639v11.849c0 4.151 3.365 7.515 7.515 7.515s7.515-3.364 7.515-7.515v-19.364c0-4.151-3.365-7.515-7.515-7.515h-20.819v-46.027h44.015c4.15 0 7.515-3.364 7.515-7.515s-3.366-7.515-7.516-7.515z"/><path d="m225.991 269.4c0 16.547 13.462 30.009 30.009 30.009s30.009-13.462 30.009-30.009c0-16.548-13.462-30.01-30.009-30.01s-30.009 13.462-30.009 30.01zm44.989 0c0 8.259-6.72 14.979-14.98 14.979s-14.98-6.72-14.98-14.979c0-8.26 6.72-14.98 14.98-14.98s14.98 6.72 14.98 14.98z"/></g></svg>